# xmcd CD database file
#
# Track frame offsets:
#	187
#	18757
#	40722
#	62782
#	83655
#	99777
#	117532
#	133962
#	147817
#	166240
#	182587
#	202880
#	222505
#	241855
#	262407
#	281252
#	297977
#
# Disc length: 4228 seconds
#
# Revision: 0
# Processed by: cddbd v1.5.1PL0 Copyright (c) Steve Scherf et al.
# Submitted via: CDex 1.51
#
DISCID=f4108211
DTITLE=立花瞳・他 - 超魔神英雄伝ワタル　オフヴォーカル・コレクション
DYEAR=1900
DGENRE=アニメ
TTITLE0=前田克樹/君が生まれる日
TTITLE1=尾関昌也/Sun shine Moon Shine
TTITLE2=山本健司/永遠の扉
TTITLE3=工藤崇/ハートの呪文
TTITLE4=立花瞳/エール
TTITLE5=池毅/DON'T MIND PARTY
TTITLE6=立花瞳/Future
TTITLE7=Love Palette/くるみパン
TTITLE8=立花瞳/ひとつのハートで
TTITLE9=立花瞳/BOYS BE AMBITIOUS
TTITLE10=田中公平/Another Step
TTITLE11=山本健司/Again
TTITLE12=谷脇仁美/POWER OF DREAM
TTITLE13=立花瞳/がんばって
TTITLE14=坂下正俊/Honesty
TTITLE15=松原みき/Dream Baloon
TTITLE16=坂下正俊/君に続く空
EXTD=
EXTT0=
EXTT1=
EXTT2=
EXTT3=
EXTT4=
EXTT5=
EXTT6=
EXTT7=
EXTT8=
EXTT9=
EXTT10=
EXTT11=
EXTT12=
EXTT13=
EXTT14=
EXTT15=
EXTT16=
PLAYORDER=
